<?xml version="1.0" encoding="UTF-8" standalone="no"?>
<svg width="80px" height="67px" viewBox="0 0 80 67" version="1.1" xmlns="http://www.w3.org/2000/svg" xmlns:xlink="http://www.w3.org/1999/xlink" xmlns:sketch="http://www.bohemiancoding.com/sketch/ns">
    <title>Shape</title>
    <description>Created with Sketch (http://www.bohemiancoding.com/sketch)</description>
    <defs></defs>
    <g id="Page-1" stroke="none" stroke-width="1" fill="none" fill-rule="evenodd" sketch:type="MSPage">
        <g id="icon-closed" sketch:type="MSArtboardGroup" transform="translate(0.000000, -7.000000)" fill="#FFFFFF">
            <g id="ios7-chatbubble" sketch:type="MSLayerGroup" transform="translate(0.000000, 7.000000)">
                <path d="M0,32.3065625 C0,38.734375 2.33333333,44.7225 6.33333333,49.7475 C6.52083333,49.9359375 6.9375,50.543125 7.08333333,50.7734375 C7.08333333,50.7734375 6.875,50.4384375 6.85416667,50.375625 C7.33333333,51.0665625 7.60416667,51.8621875 7.60416667,52.720625 C7.60416667,53.01375 3.875,64.864375 3.875,64.864375 C3.60416667,65.785625 4.3125,66.7278125 5.45833333,66.958125 C5.625,67 5.79166667,67 5.95833333,67 C6.22916667,67 6.47916667,66.958125 6.72916667,66.8953125 L7.0625,66.7696875 L17.6041667,62.1634375 C17.7916667,62.0796875 19.4791667,61.430625 19.6875,61.346875 C20.3958333,61.095625 21.1875,60.97 22.0208333,60.97 C22.7708333,60.97 23.5,61.0746875 24.1666667,61.2840625 C24.3125,61.346875 24.4166667,61.3678125 24.5208333,61.4096875 C29.3333333,63.06375 34.6041667,63.56625 40.1666667,63.56625 C62.25,63.56625 79.9583333,50.1453125 79.9583333,32.3065625 C80,14.4678125 62.0833333,0 40,0 C17.8958333,0 0,14.4678125 0,32.3065625 Z M28.5166667,48 L51.4833333,48 C52.3161458,48 53,47.3370536 53,46.5200893 L53,32.3303571 C53,31.5133929 52.3229167,30.8571429 51.4833333,30.8571429 L50.0208333,30.8571429 L50.0208333,28.7879464 C50.0208333,26.0089286 48.9239583,22.921875 47.1364583,21.0602679 C45.3557292,19.1986607 42.803125,18 40.0067708,18 L40,18 L39.9932292,18 C37.196875,18 34.6442708,19.1986607 32.8635417,21.0535714 C31.0760417,22.9151786 29.9791667,26.0022321 29.9791667,28.78125 L29.9791667,30.8571429 L28.6927083,30.8571429 L28.5166667,30.8571429 C27.6770833,30.8571429 27,31.5200893 27,32.3303571 L27,46.5200893 C27,47.3370536 27.6770833,48 28.5166667,48 Z M33.5677083,28.7879464 C33.5677083,26.9598214 34.2380208,24.6964286 35.4703125,23.4107143 L35.4703125,23.390625 C36.6619792,22.1450893 38.3072917,21.4151786 39.9932292,21.4151786 L40,21.4151786 L40.0067708,21.4151786 C41.6927083,21.4151786 43.3380208,22.1450893 44.5296875,23.390625 L44.5296875,23.4040179 L44.5229167,23.4107143 C45.7619792,24.6964286 46.4255208,26.9598214 46.4255208,28.7879464 L46.4255208,30.8571429 L45.240625,30.8571429 L34.7458333,30.8571429 L33.5677083,30.8571429 L33.5677083,28.7879464 Z" id="Shape" sketch:type="MSShapeGroup"></path>
            </g>
        </g>
    </g>
</svg>