<?xml version="1.0" encoding="UTF-8" standalone="no"?>
<svg width="80px" height="67px" viewBox="0 0 80 67" version="1.1" xmlns="http://www.w3.org/2000/svg" xmlns:xlink="http://www.w3.org/1999/xlink" xmlns:sketch="http://www.bohemiancoding.com/sketch/ns">
    <title>Shape</title>
    <description>Created with Sketch (http://www.bohemiancoding.com/sketch)</description>
    <defs></defs>
    <g id="Page-1" stroke="none" stroke-width="1" fill="none" fill-rule="evenodd" sketch:type="MSPage">
        <g id="icon-hot" sketch:type="MSArtboardGroup" transform="translate(0.000000, -7.000000)" fill="#FFFFFF">
            <g id="ios7-chatbubble" sketch:type="MSLayerGroup" transform="translate(0.000000, 7.000000)">
                <path d="M40,0 C17.8958333,0 0,14.4678125 0,32.3065625 C0,38.734375 2.33333333,44.7225 6.33333333,49.7475 C6.52083333,49.9359375 6.9375,50.543125 7.08333333,50.7734375 C7.08333333,50.7734375 6.875,50.4384375 6.85416667,50.375625 C7.33333333,51.0665625 7.60416667,51.8621875 7.60416667,52.720625 C7.60416667,53.01375 3.875,64.864375 3.875,64.864375 C3.60416667,65.785625 4.3125,66.7278125 5.45833333,66.958125 C5.625,67 5.79166667,67 5.95833333,67 C6.22916667,67 6.47916667,66.958125 6.72916667,66.8953125 L7.0625,66.7696875 L17.6041667,62.1634375 C17.7916667,62.0796875 19.4791667,61.430625 19.6875,61.346875 L19.8125,61.305 C19.8125,61.305 19.7916667,61.305 19.6875,61.346875 C20.3958333,61.095625 21.1875,60.97 22.0208333,60.97 C22.7708333,60.97 23.5,61.0746875 24.1666667,61.2840625 C24.1875,61.2840625 24.2083333,61.2840625 24.2083333,61.305 C24.3125,61.346875 24.4166667,61.3678125 24.5208333,61.4096875 C29.3333333,63.06375 34.6041667,63.56625 40.1666667,63.56625 C62.25,63.56625 79.9583333,50.1453125 79.9583333,32.3065625 C80,14.4678125 62.0833333,0 40,0 Z M38.9875,15 L38.9875,21.3 L41.0125,21.3 L41.0125,15 L38.9875,15 Z M38.9875,44.25 L38.9875,51 L41.0125,51 L41.0125,44.25 L38.9875,44.25 Z M51.7,31.9875 L51.7,34.0125 L58,34.0125 L58,31.9875 L51.7,31.9875 Z M22,31.9875 L22,34.0125 L28.75,34.0125 L28.75,31.9875 L22,31.9875 Z M52.8861213,43.86399 L49.083691,40.0615597 L47.747272,41.3979787 L51.5497023,45.200409 L52.8861213,43.86399 Z M32.9657688,23.9016862 L29.1553836,20.0913011 L27.8189646,21.4277201 L31.6293498,25.2381052 L32.9657688,23.9016862 Z M51.4888262,20.17023 L47.686396,23.9726602 L49.022815,25.3090792 L52.8252452,21.506649 L51.4888262,20.17023 Z M31.6417787,39.9727275 L27.8308547,43.7825737 L29.1670847,45.1191817 L32.9780087,41.3093355 L31.6417787,39.9727275 Z M40,41.5275 C35.2975,41.5275 31.4725,37.7025 31.4725,33 C31.4725,28.2975 35.2975,24.4725 40,24.4725 C44.7025,24.4725 48.5275,28.2975 48.5275,33 C48.5275,37.7025 44.7025,41.5275 40,41.5275 Z" id="Shape" sketch:type="MSShapeGroup"></path>
            </g>
        </g>
    </g>
</svg>